<svg width="23" height="20" viewBox="0 0 23 20" fill="none" xmlns="http://www.w3.org/2000/svg">
<path d="M22.9914 1.9502C22.9915 1.77357 22.9448 1.60006 22.8561 1.44734C22.7673 1.29463 22.6397 1.16816 22.4862 1.08083C22.3326 0.993494 22.1587 0.948408 21.9821 0.950163C21.8054 0.951917 21.6324 1.00045 21.4807 1.09082C20.8954 1.4392 20.2652 1.706 19.6077 1.88382C18.6686 1.07805 17.471 0.637122 16.2337 0.641628C14.8762 0.643191 13.5726 1.17222 12.5979 2.11701C11.6232 3.0618 11.0539 4.34839 11.01 5.70511C8.33402 5.27837 5.90868 3.88163 4.19649 1.78125C4.09333 1.65608 3.96158 1.55756 3.81235 1.49399C3.66313 1.43043 3.5008 1.40368 3.33907 1.416C3.17743 1.42931 3.02147 1.48179 2.88467 1.56891C2.74786 1.65603 2.63434 1.77516 2.55391 1.916C2.14144 2.63581 1.90454 3.44276 1.86246 4.27131C1.82038 5.09985 1.9743 5.92665 2.31172 6.68455L2.30977 6.6865C2.15812 6.7799 2.03296 6.91065 1.94628 7.06625C1.85959 7.22184 1.81427 7.39707 1.81465 7.57518C1.81282 7.72211 1.82163 7.86897 1.84102 8.01463C1.94316 9.27289 2.50081 10.4507 3.40938 11.3271C3.34775 11.4446 3.31013 11.5731 3.29873 11.7052C3.28732 11.8373 3.30237 11.9704 3.34297 12.0967C3.73909 13.3308 4.58147 14.3727 5.70528 15.0185C4.56352 15.46 3.3307 15.614 2.11543 15.4668C1.89051 15.4386 1.66266 15.4876 1.46928 15.6059C1.2759 15.7242 1.12846 15.9047 1.05115 16.1178C0.973837 16.3309 0.971244 16.5639 1.04379 16.7787C1.11634 16.9935 1.25973 17.1772 1.45043 17.2998C3.54053 18.6459 5.97411 19.3617 8.4602 19.3613C11.2795 19.393 14.0302 18.4921 16.2844 16.7988C18.5387 15.1054 20.1702 12.7145 20.925 9.998C21.2781 8.81463 21.4583 7.58647 21.4602 6.35156C21.4602 6.28613 21.4602 6.21875 21.4592 6.15137C21.9813 5.5883 22.3858 4.92667 22.6489 4.20527C22.912 3.48386 23.0284 2.71719 22.9914 1.9502ZM19.6848 5.16211C19.5196 5.35745 19.436 5.60891 19.4514 5.86426C19.4611 6.02926 19.4602 6.19526 19.4602 6.35156C19.4581 7.3951 19.3052 8.43286 19.0061 9.43262C18.3896 11.744 17.0152 13.7817 15.1031 15.2192C13.1911 16.6568 10.8519 17.4111 8.4602 17.3613C7.60108 17.3616 6.74492 17.2606 5.90942 17.0605C6.97483 16.7172 7.97101 16.1879 8.8518 15.4971C9.01403 15.3693 9.13275 15.1945 9.19169 14.9967C9.25063 14.7988 9.24688 14.5875 9.18098 14.3918C9.11507 14.1961 8.99023 14.0257 8.82358 13.9038C8.65694 13.7818 8.45665 13.7145 8.2502 13.7109C7.41903 13.698 6.62533 13.363 6.03633 12.7764C6.18575 12.748 6.33419 12.7129 6.48165 12.6709C6.69766 12.6094 6.8867 12.477 7.01831 12.295C7.14993 12.1131 7.21647 11.8921 7.20723 11.6677C7.19798 11.4433 7.11348 11.2285 6.96734 11.058C6.82119 10.8874 6.62191 10.771 6.40157 10.7275C5.91911 10.6323 5.46512 10.427 5.07489 10.1277C4.68466 9.82844 4.3687 9.4432 4.15157 9.00195C4.3323 9.02662 4.51418 9.04194 4.69649 9.04785C4.91308 9.05112 5.12509 8.98542 5.30187 8.86025C5.47865 8.73508 5.61104 8.55693 5.67989 8.35156C5.74587 8.14432 5.74248 7.92122 5.67022 7.71609C5.59797 7.51096 5.46079 7.33498 5.2795 7.21484C4.83965 6.92181 4.47935 6.52426 4.23086 6.05779C3.98237 5.59133 3.85346 5.07052 3.85567 4.542C3.85567 4.4756 3.85762 4.40919 3.86153 4.34376C6.10279 6.43401 9.00985 7.66621 12.0705 7.82325C12.225 7.82934 12.3789 7.80024 12.5205 7.73815C12.6621 7.67606 12.7877 7.58261 12.8879 7.46485C12.9871 7.34595 13.0573 7.20566 13.0931 7.05501C13.1288 6.90436 13.1291 6.74747 13.0939 6.59669C13.0367 6.35805 13.0076 6.11356 13.007 5.86817C13.0079 5.0127 13.3482 4.19254 13.9531 3.58763C14.558 2.98273 15.3781 2.6425 16.2336 2.6416C16.6737 2.64042 17.1093 2.7305 17.5129 2.90614C17.9165 3.08179 18.2792 3.3392 18.5783 3.66211C18.6937 3.78619 18.8388 3.8787 19 3.93084C19.1612 3.98298 19.333 3.99302 19.4992 3.96C19.91 3.88005 20.3149 3.77239 20.7111 3.63774C20.4409 4.19071 20.0955 4.70368 19.6848 5.16211Z" fill="#F5EFDB"/>
</svg>
