<?xml version="1.0" standalone="no"?>
<!DOCTYPE svg PUBLIC "-//W3C//DTD SVG 20010904//EN"
 "http://www.w3.org/TR/2001/REC-SVG-20010904/DTD/svg10.dtd">
<svg version="1.0" xmlns="http://www.w3.org/2000/svg"
 width="146.000000pt" height="146.000000pt" viewBox="0 0 146.000000 146.000000"
 preserveAspectRatio="xMidYMid meet">
<metadata>
Created by potrace 1.14, written by Peter Selinger 2001-2017
</metadata>
<g transform="translate(0.000000,146.000000) scale(0.100000,-0.100000)"
fill="#000000" stroke="none">
<path d="M680 1400 c0 -45 4 -60 14 -60 11 0 14 12 12 53 -2 30 1 55 8 59 6 5
2 8 -11 8 -21 0 -23 -4 -23 -60z"/>
<path d="M744 1444 c20 -20 20 -68 0 -88 -18 -19 -5 -21 19 -3 28 21 32 62 8
86 -12 12 -26 21 -32 21 -6 0 -3 -7 5 -16z"/>
<path d="M882 1380 c-17 -54 -18 -61 -3 -58 9 2 17 13 19 26 2 12 11 22 20 23
10 0 12 3 5 5 -8 4 -10 16 -6 35 10 53 -15 31 -35 -31z"/>
<path d="M950 1415 c7 -9 15 -13 17 -11 7 7 -7 26 -19 26 -6 0 -6 -6 2 -15z"/>
<path d="M941 1364 c0 -11 3 -14 6 -6 3 7 2 16 -1 19 -3 4 -6 -2 -5 -13z"/>
<path d="M346 1352 c-2 -4 4 -8 15 -8 10 0 19 4 19 8 0 4 -6 8 -14 8 -8 0 -17
-4 -20 -8z"/>
<path d="M1082 1338 c-6 -13 -20 -37 -31 -53 -20 -30 -20 -31 -1 -43 15 -9 18
-9 14 1 -2 7 9 33 25 59 27 42 30 58 11 58 -4 0 -12 -10 -18 -22z"/>
<path d="M312 1332 c-11 -3 -10 -8 1 -21 8 -9 24 -32 34 -53 14 -26 23 -34 33
-28 12 7 11 12 -4 29 -19 21 -14 41 10 41 8 0 12 5 9 10 -5 8 -12 7 -22 -2
-13 -10 -18 -9 -32 8 -9 11 -22 19 -29 16z"/>
<path d="M926 1320 c-17 -6 -18 -7 -3 -13 9 -3 19 -2 23 4 9 15 2 18 -20 9z"/>
<path d="M416 1274 c-8 -20 -4 -25 11 -16 7 4 9 13 4 21 -6 10 -10 9 -15 -5z"/>
<path d="M190 1224 l-24 -24 22 -16 c13 -9 34 -27 47 -40 27 -27 35 -30 35
-12 0 7 -19 29 -42 49 -43 37 -43 37 -19 47 14 5 20 12 14 15 -5 4 -21 -5 -33
-19z"/>
<path d="M1090 1230 c-13 -8 -13 -10 2 -10 9 0 20 5 23 10 8 13 -5 13 -25 0z"/>
<path d="M1221 1171 c-26 -24 -39 -41 -32 -45 13 -8 103 63 95 76 -8 13 -17 9
-63 -31z"/>
<path d="M145 1170 c3 -5 11 -10 16 -10 6 0 7 5 4 10 -3 6 -11 10 -16 10 -6 0
-7 -4 -4 -10z"/>
<path d="M1301 1053 c-24 -20 -33 -53 -20 -74 6 -10 9 -7 9 13 0 33 39 63 71
55 16 -4 18 -3 8 9 -16 19 -42 18 -68 -3z"/>
<path d="M66 1035 c-3 -8 12 -19 42 -31 53 -21 62 -23 63 -10 0 4 -22 19 -50
31 -38 18 -51 20 -55 10z"/>
<path d="M1388 1007 c-3 -15 -2 -27 3 -27 13 0 17 14 9 35 -6 17 -7 16 -12 -8z"/>
<path d="M477 973 c-15 -7 -27 -17 -28 -21 0 -4 -2 -18 -5 -31 -12 -63 87
-151 154 -138 23 5 35 0 56 -22 14 -15 23 -30 20 -34 -4 -4 -1 -14 6 -22 12
-14 -1 -30 -94 -124 -103 -103 -106 -108 -88 -124 18 -16 23 -12 125 90 l107
108 110 -110 c104 -104 111 -109 127 -92 16 16 14 20 -39 75 -31 31 -79 81
-107 110 l-51 52 21 37 c28 50 47 62 86 56 89 -15 185 126 123 182 -61 55
-175 -25 -175 -123 0 -35 -6 -52 -24 -70 -13 -13 -26 -21 -29 -18 -3 4 -14 -2
-25 -11 -18 -17 -19 -17 -28 0 -6 10 -15 15 -20 11 -6 -3 -23 6 -39 21 -23 22
-27 32 -20 54 10 34 -9 82 -46 116 -15 14 -27 25 -28 25 -1 0 -15 4 -32 9 -21
6 -38 4 -57 -6z m101 -37 c27 -24 52 -68 52 -90 0 -25 -39 -54 -63 -48 -54 13
-107 73 -107 121 0 28 38 52 69 44 14 -3 37 -15 49 -27z m404 22 c66 -51 -53
-199 -121 -152 -40 29 -17 109 42 144 37 23 57 25 79 8z m-267 -238 c3 -5 2
-10 -4 -10 -5 0 -13 5 -16 10 -3 6 -2 10 4 10 5 0 13 -4 16 -10z m55 0 c0 -5
-4 -10 -10 -10 -5 0 -10 5 -10 10 0 6 5 10 10 10 6 0 10 -4 10 -10z m-30 -30
c0 -5 -2 -10 -4 -10 -3 0 -8 5 -11 10 -3 6 -1 10 4 10 6 0 11 -4 11 -10z
m-121 -126 c-57 -58 -105 -100 -107 -95 -4 13 191 210 202 204 4 -3 -38 -52
-95 -109z m335 -95 c-6 -10 -204 188 -204 204 0 6 47 -35 104 -92 58 -58 103
-108 100 -112z"/>
<path d="M1310 964 c-20 -11 -22 -14 -8 -19 21 -8 49 7 40 21 -5 7 -15 6 -32
-2z"/>
<path d="M1390 873 c-55 -8 -67 -13 -67 -27 0 -10 7 -12 28 -6 17 5 32 4 39
-3 10 -9 11 -9 6 0 -4 7 4 13 21 15 16 2 27 8 26 13 -2 12 -18 14 -53 8z"/>
<path d="M17 863 c-4 -3 -7 -11 -7 -16 0 -6 3 -7 6 -4 4 3 15 2 25 -4 13 -6
25 -6 36 0 11 6 24 6 35 0 20 -11 24 1 6 19 -15 15 -48 16 -48 2 0 -7 -6 -7
-19 0 -23 12 -26 12 -34 3z"/>
<path d="M0 815 c0 -8 3 -15 8 -16 7 -1 19 -3 78 -14 23 -4 33 -1 38 10 4 11
-2 15 -22 16 -44 2 -69 6 -86 12 -10 4 -16 1 -16 -8z"/>
<path d="M1388 796 c-53 -8 -70 -18 -50 -29 4 -2 33 1 64 7 78 15 64 34 -14
22z"/>
<path d="M1436 665 c4 -8 7 -15 9 -15 2 0 5 7 9 15 3 9 0 15 -9 15 -9 0 -12
-6 -9 -15z"/>
<path d="M1327 638 c-3 -9 8 -13 35 -15 21 0 50 -4 63 -7 18 -5 25 -2 25 7 0
9 -17 17 -46 21 -64 8 -71 8 -77 -6z"/>
<path d="M1425 591 c-3 -5 -1 -12 4 -15 5 -3 11 1 15 9 6 16 -9 21 -19 6z"/>
<path d="M140 475 c-14 -7 -28 -12 -31 -9 -8 4 -34 -74 -27 -82 3 -3 16 11 28
30 12 20 33 39 46 42 24 6 31 18 16 28 -4 2 -18 -2 -32 -9z"/>
<path d="M45 460 c4 -6 11 -8 16 -5 14 9 11 15 -7 15 -8 0 -12 -5 -9 -10z"/>
<path d="M220 343 c0 -33 -10 -48 -30 -48 -22 0 -24 -39 -2 -58 17 -16 21 -14
64 22 32 26 44 41 37 48 -7 7 -22 0 -47 -23 -39 -35 -65 -45 -56 -19 4 8 14
15 24 15 12 0 21 12 28 40 5 21 7 42 4 45 -13 12 -22 3 -22 -22z"/>
<path d="M1184 328 c-4 -6 11 -27 37 -49 34 -29 47 -35 57 -26 12 9 11 12 -1
17 -8 3 -31 20 -51 37 -23 22 -37 29 -42 21z"/>
<path d="M350 230 c0 -5 9 -10 19 -10 33 0 33 -18 1 -64 -19 -29 -26 -47 -19
-51 6 -4 11 -5 13 -4 1 2 17 25 34 51 l31 47 -33 21 c-37 23 -46 24 -46 10z"/>
<path d="M1080 236 c0 -2 7 -9 15 -16 13 -11 14 -10 9 4 -5 14 -24 23 -24 12z"/>
<path d="M1119 183 c14 -27 6 -28 -44 -7 -53 22 -70 16 -44 -16 12 -14 18 -19
14 -12 -8 16 0 15 54 -4 55 -19 67 -8 34 31 -17 21 -22 23 -14 8z"/>
<path d="M336 181 c-3 -5 3 -11 15 -14 16 -4 18 -3 8 9 -13 16 -16 17 -23 5z"/>
<path d="M300 141 c0 -5 7 -11 14 -14 10 -4 13 -1 9 9 -6 15 -23 19 -23 5z"/>
<path d="M531 126 c-8 -9 -8 -15 -1 -18 5 -1 11 -22 13 -45 1 -29 7 -43 18
-46 14 -4 16 0 9 24 -10 35 -10 32 -10 69 0 32 -11 38 -29 16z"/>
<path d="M1056 120 c6 -8 13 -22 16 -30 3 -9 7 -10 11 -3 4 6 -3 19 -16 29
-12 11 -17 12 -11 4z"/>
<path d="M680 110 c0 -5 4 -10 9 -10 6 0 13 5 16 10 3 6 -1 10 -9 10 -9 0 -16
-4 -16 -10z"/>
<path d="M735 93 c0 -23 -4 -28 -22 -26 -13 2 -23 -2 -23 -7 0 -6 12 -10 26
-10 23 0 26 -3 22 -25 -4 -18 -1 -25 11 -25 13 0 15 10 13 60 -3 38 -8 60 -16
60 -6 0 -12 -12 -11 -27z"/>
<path d="M498 83 c-23 -28 -30 -43 -19 -43 6 0 11 5 11 12 0 6 7 20 17 30 9
10 14 18 11 18 -3 0 -12 -8 -20 -17z"/>
<path d="M690 10 c0 -6 7 -10 15 -10 8 0 15 2 15 4 0 2 -7 6 -15 10 -8 3 -15
1 -15 -4z"/>
</g>
</svg>
